HIERARCHY
ROOT root
{
	OFFSET	0	13.1	24.9
	CHANNELS 6  Xposition Yposition Zposition Xrotation Yrotation Zrotation
	JOINT spine_1
	{
		OFFSET	0	9.99999	0
		CHANNELS 3  Xrotation Yrotation Zrotation
		JOINT spine_2
		{
			OFFSET	0	112	-10
			CHANNELS 3  Xrotation Yrotation Zrotation
			JOINT spine_3
			{
				OFFSET	0	206.5	19.3
				CHANNELS 3  Xrotation Yrotation Zrotation
				JOINT spine_4
				{
					OFFSET	0	110.4	14.6
					CHANNELS 3  Xrotation Yrotation Zrotation
					JOINT neck_1
					{
						OFFSET	0	71.8	-50.3
						CHANNELS 3  Xrotation Yrotation Zrotation
						JOINT neck_2
						{
							OFFSET	0	86.2	-25.8
							CHANNELS 3  Xrotation Yrotation Zrotation
							JOINT head_ee
							{
								OFFSET	0	179.8	-8.7
								CHANNELS 3  Xrotation Yrotation Zrotation
								End Site
								{
									OFFSET	1	0	0
								}
							}
						}
					}
					JOINT left_clavicle
					{
						OFFSET	-43.2	22.4	-70.8
						CHANNELS 3  Xrotation Yrotation Zrotation
						JOINT left_shoulder
						{
							OFFSET	-93.9	-5.79999	48.7
							CHANNELS 3  Xrotation Yrotation Zrotation
							JOINT left_elbow
							{
								OFFSET	-291.4	-30.8	15.2
								CHANNELS 3  Xrotation Yrotation Zrotation
								JOINT left_lowarm_twist
								{
									OFFSET	-110.7	-3.89999	13.6
									CHANNELS 3  Xrotation Yrotation Zrotation
									JOINT left_hand
									{
										OFFSET	-110.7	-3.89999	13.6
										CHANNELS 3  Xrotation Yrotation Zrotation
										JOINT left_ee
										{
											OFFSET	-80.8	-5.10001	12.1
											CHANNELS 3  Xrotation Yrotation Zrotation
											End Site
											{
												OFFSET	1	0	0
											}
										}
									}
								}
							}
						}
					}
					JOINT right_clavicle
					{
						OFFSET	43.2	22.4	-70.8
						CHANNELS 3  Xrotation Yrotation Zrotation
						JOINT right_shoulder
						{
							OFFSET	93.9	-5.79999	48.7
							CHANNELS 3  Xrotation Yrotation Zrotation
							JOINT right_elbow
							{
								OFFSET	291.4	-30.8	15.2
								CHANNELS 3  Xrotation Yrotation Zrotation
								JOINT right_lowarm_twist
								{
									OFFSET	110.7	-3.89999	13.6
									CHANNELS 3  Xrotation Yrotation Zrotation
									JOINT right_hand
									{
										OFFSET	110.7	-3.89999	13.6
										CHANNELS 3  Xrotation Yrotation Zrotation
										JOINT right_ee
										{
											OFFSET	80.8	-5.10001	12.1
											CHANNELS 3  Xrotation Yrotation Zrotation
											End Site
											{
												OFFSET	1	0	0
											}
										}
									}
								}
							}
						}
					}
				}
			}
		}
	}
	JOINT left_hip
	{
		OFFSET	-82.8	-127.5	0.300001
		CHANNELS 3  Xrotation Yrotation Zrotation
		JOINT left_knee
		{
			OFFSET	-28.2	-396.7	2.2
			CHANNELS 3  Xrotation Yrotation Zrotation
			JOINT left_ankle
			{
				OFFSET	-11.7	-411.3	35.4
				CHANNELS 3  Xrotation Yrotation Zrotation
				JOINT left_toes
				{
					OFFSET	0	-60	-88.6
					CHANNELS 3  Xrotation Yrotation Zrotation
					JOINT left_foot_ee
					{
						OFFSET	-22.5	-16.5	-42.2
						CHANNELS 3  Xrotation Yrotation Zrotation
						End Site
						{
							OFFSET	1	0	0
						}
					}
				}
			}
		}
	}
	JOINT right_hip
	{
		OFFSET	82.8	-127.5	0.300001
		CHANNELS 3  Xrotation Yrotation Zrotation
		JOINT right_knee
		{
			OFFSET	28.2	-396.7	2.2
			CHANNELS 3  Xrotation Yrotation Zrotation
			JOINT right_ankle
			{
				OFFSET	11.7	-411.3	35.4
				CHANNELS 3  Xrotation Yrotation Zrotation
				JOINT right_toes
				{
					OFFSET	0	-60	-88.6
					CHANNELS 3  Xrotation Yrotation Zrotation
					JOINT right_foot_ee
					{
						OFFSET	22.5	-16.5	-42.2
						CHANNELS 3  Xrotation Yrotation Zrotation
						End Site
						{
							OFFSET	1	0	0
						}
					}
				}
			}
		}
	}
}
MOTION
Frames: 11
Frame Time: 0.02
1383.74 660.895 -1514.07 -25.9225 70.1379 37.5468 2.91797 -0.415201 -2.93937 2.92275 -0.227404 -2.9598 2.93315 0.248833 -2.95808 2.92101 -0.221253 -2.96027 2.66 -2.65951 -3.35334 2.68792 -1.79574 -3.92128 -0.0 0.0 -0.0 3.74154 13.39 7.73991 -34.5734 -22.5725 67.3268 0.675385 -18.4985 0.109986 33.8146 -0.0672145 -4.25702 0.0321618 3.02978 1.48426 -0.0 0.0 -0.0 7.21299 6.73891 -13.9429 2.84663 -3.91417 -56.2968 1.87622 42.9007 -0.73724 28.1533 -0.11973 3.5584 6.44339 13.9307 -40.4138 0.0 0.0 0.0 39.0831 -7.04958 -10.3801 -5.40733 0.184565 0.809034 14.1967 -6.01282 -2.04414 -35.7287 0.0 0.0 -0.0 0.0 -0.0 0.522549 16.8572 -23.5011 -8.02176 -0.246219 -1.20547 39.9906 -21.3931 5.0619 12.4972 -0.0 -0.0 0.0 0.0 0.0 
1364.56 660.426 -1521.79 -25.819 70.8205 38.2552 2.98146 -0.488479 -3.10929 2.98679 -0.289737 -3.13404 3.00106 0.211381 -3.14029 2.98742 -0.286972 -3.13429 2.31441 -2.32799 -2.61523 2.33184 -1.86551 -3.074 -0.0 0.0 -0.0 2.50639 13.641 5.71187 -32.0664 -24.4112 69.1467 0.805442 -21.7515 0.154753 32.7874 -0.0281774 -4.13167 0.0740377 3.15353 1.8129 -0.0 0.0 -0.0 7.02439 6.42835 -13.5585 0.750718 -3.44712 -56.6114 1.84704 42.4534 -0.717462 26.4715 -0.161866 3.34771 6.39749 13.9543 -40.0025 0.0 0.0 0.0 39.3188 -6.78655 -10.99 -11.2325 0.29709 1.69545 14.7994 -2.98573 -2.10165 -34.3485 0.0 0.0 -0.0 0.0 -0.0 0.460345 16.3614 -24.1116 -10.692 -0.29045 -1.61279 40.5585 -23.588 5.17655 12.8848 -0.0 -0.0 0.0 0.0 0.0 
1342.26 663.883 -1529.15 -25.6425 71.811 38.6452 2.7129 -0.470312 -3.25851 2.71877 -0.262125 -3.2818 2.73246 0.277569 -3.28053 2.71753 -0.243727 -3.28322 2.9073 -2.4762 -3.10823 2.93118 -1.66722 -3.63921 -0.0 0.0 -0.0 3.67701 12.5193 7.61001 -30.6236 -26.9384 67.5081 1.04014 -27.2593 0.252213 33.4875 -0.0545415 -4.21718 -0.0191529 4.03896 1.5659 -0.0 0.0 -0.0 6.72728 3.55759 -13.0115 -0.783279 -3.55327 -57.1363 1.86959 42.7997 -0.732732 27.6856 -0.132067 3.49994 6.49251 14.4678 -40.4731 0.0 0.0 0.0 39.1212 -6.21413 -11.8775 -15.3562 0.322035 2.32754 12.9315 -6.77469 -1.87808 -34.1735 0.0 0.0 -0.0 0.0 -0.0 0.432132 14.7742 -23.6041 -12.5748 -0.310204 -1.90099 39.2515 -24.6342 5.08386 12.5181 -0.0 -0.0 0.0 0.0 0.0 
1313.49 665.709 -1536.76 -21.6978 71.4268 35.103 2.55326 -0.557713 -3.44705 2.55981 -0.337374 -3.47551 2.57913 0.244224 -3.48329 2.56233 -0.308619 -3.47818 1.96887 -1.83418 -2.10633 1.98019 -1.44794 -2.47021 -0.0 0.0 -0.0 3.40456 12.2526 7.14389 -23.3377 -24.005 70.1397 1.06741 -27.8675 0.264831 33.5547 -0.0571259 -4.22537 -0.222667 5.35192 0.77699 -0.0 0.0 -0.0 6.46521 1.68887 -12.5141 -2.93098 -1.54169 -57.8497 1.83728 42.3022 -0.710882 25.8198 -0.176527 3.26576 6.45369 14.0311 -40.435 0.0 0.0 0.0 39.0426 -5.99973 -12.8876 -20.6168 0.287797 3.13367 14.7847 -4.52311 -2.11096 -33.3153 0.0 0.0 -0.0 0.0 -0.0 -0.222668 14.8986 -22.998 -15.5605 -0.322088 -2.35888 38.5527 -25.3859 5.03896 12.2685 -0.0 -0.0 0.0 0.0 0.0 
1289.89 669.459 -1545.02 -19.4619 71.535 33.4481 2.40804 -0.499509 -3.58171 2.41514 -0.270735 -3.60619 2.43117 0.341103 -3.60022 2.41316 -0.231384 -3.60892 1.05042 -1.32909 -2.01593 1.06081 -0.674461 -2.31906 -0.0 0.0 -0.0 4.23044 14.6153 8.56436 -24.2954 -28.1354 65.6402 1.23177 -31.3896 0.346127 33.6161 -0.0594977 -4.23285 -0.431759 7.14287 0.167559 -0.0 0.0 -0.0 6.33317 0.315414 -12.2701 -4.68278 -1.22554 -58.7308 1.75025 40.9223 -0.653082 26.8968 -0.151796 3.4011 6.39814 13.3493 -40.4118 0.0 0.0 0.0 38.9471 -6.34394 -14.1479 -25.2976 0.195271 3.84581 16.3077 -7.8712 -2.34585 -32.3199 0.0 0.0 -0.0 0.0 -0.0 -1.53583 12.6621 -22.8951 -18.3082 -0.311936 -2.7803 35.3902 -24.6024 4.69191 11.8405 -0.0 -0.0 0.0 0.0 0.0 
1268.64 671.9 -1557.28 -16.3113 71.7521 30.6258 2.3564 -0.465973 -3.52161 2.36327 -0.241083 -3.54409 2.37728 0.363228 -3.53367 2.35991 -0.199046 -3.5467 0.35225 -0.982639 -1.10642 0.355462 -0.836038 -1.29487 -0.0 0.0 -0.0 4.03874 13.9267 8.24167 -21.2236 -25.2822 67.0098 1.21978 -31.1409 0.339902 31.7562 0.00874179 -4.00515 -0.346692 5.7571 0.135468 -0.0 0.0 -0.0 6.1413 -0.95865 -11.9075 -5.89463 -0.918331 -60.4548 1.59884 38.377 -0.556446 25.6058 -0.181138 3.23881 6.39664 13.0566 -40.5932 0.0 0.0 0.0 37.361 -5.70949 -15.0393 -27.3705 0.135765 4.15835 16.5485 -6.13644 -2.35949 -32.0768 0.0 0.0 -0.0 0.0 -0.0 -0.950797 11.2797 -23.1393 -23.5298 -0.237053 -3.57774 34.7775 -25.6015 4.6556 11.8527 -0.0 -0.0 0.0 0.0 0.0 
1239.7 677.077 -1570.35 -11.7585 73.0865 27.3638 2.18947 -0.528731 -3.74884 2.19724 -0.289285 -3.77483 2.21566 0.365461 -3.76823 2.19593 -0.233809 -3.77867 -0.267208 -0.854936 -0.402435 -0.266099 -1.19801 -0.525085 -0.0 0.0 -0.0 4.21818 13.9359 8.5377 -19.9879 -25.099 66.8842 1.1986 -30.6986 0.329019 31.2508 0.0260068 -3.9429 -0.25179 6.75265 1.17434 -0.0 0.0 -0.0 5.84932 -2.74036 -11.3606 -6.9592 -0.699356 -61.2645 1.37216 34.2033 -0.422195 24.2887 -0.207298 3.07259 6.04278 10.0437 -39.4315 0.0 0.0 0.0 34.3321 -5.50412 -16.6758 -30.0884 0.0406696 4.56459 18.8013 -6.74835 -2.65946 -30.8334 0.0 0.0 -0.0 0.0 -0.0 1.47841 7.77545 -23.6743 -32.5575 0.0623597 -4.92945 33.6631 -26.3417 4.55651 11.3518 -0.0 -0.0 0.0 0.0 0.0 
1220.84 679.756 -1577.08 -7.16618 72.7392 23.3619 1.86186 -0.56921 -4.01276 1.87076 -0.312927 -4.04079 1.8929 0.410795 -4.03203 1.87029 -0.230606 -4.04631 -0.349139 -0.511916 0.660342 -0.345886 -1.45185 0.650773 -0.0 0.0 -0.0 4.51044 14.1803 9.02118 -19.1521 -25.2617 66.8462 1.23512 -31.4587 0.347872 30.8287 0.0399983 -3.89082 -0.192731 7.09265 1.70096 -0.0 0.0 -0.0 5.78125 -2.7879 -11.2307 -7.72092 -0.388145 -61.5747 1.25105 31.7865 -0.356225 23.7026 -0.217707 2.99845 5.83802 8.75851 -38.4279 0.0 0.0 0.0 32.1939 -5.41464 -17.8159 -31.5367 -0.0178526 4.77912 18.4444 -6.11032 -2.6064 -30.7762 0.0 0.0 -0.0 0.0 -0.0 3.16444 7.4374 -23.8369 -38.538 0.376386 -5.79253 31.8709 -26.8596 4.37126 10.8405 -0.0 -0.0 0.0 0.0 0.0 
1196.85 682.144 -1586.24 -6.29438 73.842 23.0481 1.96027 -0.757032 -4.10602 1.96951 -0.494452 -4.14577 2.00529 0.242219 -4.16809 1.9813 -0.418511 -4.15411 -1.14423 -0.884974 0.644606 -1.13961 -2.10733 0.577615 -0.0 0.0 -0.0 4.82184 12.7523 9.53889 -18.4619 -25.4072 66.7346 1.37863 -34.3287 0.425837 31.0368 0.0331474 -3.91651 -0.330432 6.88257 0.716746 -0.0 0.0 -0.0 5.65677 -3.97596 -11.0055 -10.0279 -0.1604 -62.0428 1.19645 30.6535 -0.327924 23.6098 -0.219287 2.9867 5.82377 7.39559 -39.0778 0.0 0.0 0.0 30.1601 -5.12161 -18.6644 -32.1495 -0.0442487 4.86946 21.8446 -10.7406 -3.10297 -29.7155 0.0 0.0 -0.0 0.0 -0.0 3.73328 4.2801 -23.2228 -43.025 0.670345 -6.41648 26.7467 -26.7744 3.76287 10.6001 -0.0 -0.0 0.0 0.0 0.0 
1179.87 685.698 -1589.26 -4.60982 72.7349 21.538 1.99678 -0.867948 -4.22681 2.00652 -0.597478 -4.27336 2.05107 0.15953 -4.3119 2.02551 -0.522819 -4.28312 -1.97901 -0.15468 2.0062 -1.96404 -1.87072 2.09004 -0.0 0.0 -0.0 5.70845 11.7469 11.0602 -13.194 -25.2193 67.4703 1.33253 -33.4271 0.400139 30.559 0.0487392 -3.85748 -0.115354 7.36758 2.31837 -0.0 0.0 -0.0 5.6184 -2.74908 -10.919 -10.6745 0.0351896 -62.1669 1.02248 26.862 -0.24418 22.3356 -0.239035 2.82515 5.48919 6.34404 -36.7977 0.0 0.0 0.0 29.1613 -4.55759 -18.9179 -33.4382 -0.102909 5.0585 20.1986 -8.71517 -2.86334 -30.0974 0.0 0.0 -0.0 0.0 -0.0 6.25421 6.0234 -22.9544 -45.5233 0.855008 -6.75353 30.274 -26.6186 4.18071 10.0283 -0.0 -0.0 0.0 0.0 0.0 
1157.63 686.988 -1599.87 -4.91858 73.9851 22.6102 2.08892 -1.00614 -4.39629 2.09938 -0.724634 -4.45125 2.15549 0.0568899 -4.50937 2.12772 -0.655275 -4.46197 -2.54204 -1.22389 1.86286 -2.52269 -3.68101 1.77803 -0.0 0.0 -0.0 6.68803 7.32681 12.9031 -11.2299 -26.8211 66.5137 1.33511 -33.4779 0.401558 31.2085 0.0274258 -3.93769 -0.166003 7.47223 2.03264 -0.0 0.0 -0.0 5.0954 -5.66658 -9.97619 -11.343 -0.0704491 -62.8991 0.93073 24.752 -0.20423 22.0639 -0.242783 2.79064 5.51614 5.76537 -37.3281 0.0 0.0 0.0 28.4352 -1.83613 -20.8439 -33.1143 -0.0877622 5.0111 20.6819 -11.7968 -2.97389 -29.9688 0.0 0.0 -0.0 0.0 -0.0 6.50877 3.01062 -22.4493 -46.7377 0.950067 -6.91443 26.1529 -27.0372 3.69599 9.356 -0.0 -0.0 0.0 0.0 0.0 
